<svg xmlns="http://www.w3.org/2000/svg" viewBox="0 0 16 16" fill="currentColor">
  <path d="M8 0C3.58 0 0 3.58 0 8c0 3.54 2.29 6.54 5.47 7.59.4.07.55-.17.55-.38 0-.19-.01-.83-.01-1.5-2.01.44-2.43-.49-2.58-1.03-.09-.23-.48-1.03-.82-1.24-.28-.18-.68-.62-.01-.63.63-.01 1.08.58 1.23.82.72 1.22 1.88.87 2.34.66.07-.52.28-.87.51-1.07-1.77-.2-3.63-.89-3.63-3.95 0-.87.31-1.58.82-2.14-.08-.2-.36-1.02.08-2.12 0 0 .67-.21 2.2.82A7.56 7.56 0 018 2.5c.68 0 1.36.09 2 .26 1.53-1.03 2.2-.82 2.2-.82.44 1.1.16 1.92.08 2.12.51.56.82 1.27.82 2.14 0 3.06-1.82 3.75-3.63 3.95.29.25.55.74.55 1.49 0 1.08-.01 1.95-.01 2.21 0 .21.15.46.55.38C13.71 14.54 16 11.54 16 8c0-4.42-3.58-8-8-8z"/>
</svg> 